# xmcd CD database file
#
# Track frame offsets:
#	150
#	12884
#	26393
#	47304
#	60614
#	78950
#	95785
#	118153
#	131135
#	143183
#	156755
#	177388
#	194229
#	209487
#	226170
#	257576
#
# Disc length: 3748 seconds
#
# Revision: 0
# Processed by: cddbd v1.5.2PL0 Copyright (c) Steve Scherf et al.
# Submitted via: CDex 1.51
#
DISCID=de0ea210
DTITLE=Big Jon Atkinson and Bob Corritore - House Party at Big Jon's
DYEAR=2016
DGENRE=Blues
TTITLE0=Goin' Back to Tennessee
TTITLE1=Here Comes My Baby
TTITLE2=It Wasn't Easy
TTITLE3=She's My Crazy Little Baby
TTITLE4=At the Meeting
TTITLE5=Mojo Hand
TTITLE6=Mojo in My Bread
TTITLE7=Mad About It
TTITLE8=Empty Bedroom
TTITLE9=I'm Gonna Miss You Like the Devil
TTITLE10=You Want Me to Trust You
TTITLE11=Mississippi Plow
TTITLE12=El Centro
TTITLE13=I'm a King Bee
TTITLE14=Somebody Done Changed the Lock on My Door
TTITLE15=Big Jon Atkinson and Bob Corritore - My Feelings Won't Be Hurt
EXTD=YEAR: 2016
EXTT0=
EXTT1=
EXTT2=
EXTT3=
EXTT4=
EXTT5=
EXTT6=
EXTT7=
EXTT8=
EXTT9=
EXTT10=
EXTT11=
EXTT12=
EXTT13=
EXTT14=
EXTT15=
PLAYORDER=
